<svg width="117" height="117" viewBox="0 0 117 117" fill="none" xmlns="http://www.w3.org/2000/svg">
<g clip-path="url(#clip0_156_443)">
<path d="M58.4989 74.0994C67.1146 74.0994 74.0989 67.1151 74.0989 58.4994C74.0989 49.8838 67.1146 42.8994 58.4989 42.8994C49.8833 42.8994 42.8989 49.8838 42.8989 58.4994C42.8989 67.1151 49.8833 74.0994 58.4989 74.0994Z" fill="black"/>
<path d="M43.875 9.75L34.9538 19.5H19.5C14.1375 19.5 9.75 23.8875 9.75 29.25V87.75C9.75 93.1125 14.1375 97.5 19.5 97.5H97.5C102.863 97.5 107.25 93.1125 107.25 87.75V29.25C107.25 23.8875 102.863 19.5 97.5 19.5H82.0462L73.125 9.75H43.875ZM58.5 82.875C45.045 82.875 34.125 71.955 34.125 58.5C34.125 45.045 45.045 34.125 58.5 34.125C71.955 34.125 82.875 45.045 82.875 58.5C82.875 71.955 71.955 82.875 58.5 82.875Z" fill="black"/>
</g>
<defs>
<clipPath id="clip0_156_443">
<rect width="117" height="117" fill="white"/>
</clipPath>
</defs>
</svg>
