<svg width="20" height="18" viewBox="0 0 20 18" fill="none" xmlns="http://www.w3.org/2000/svg">
<path d="M18 7L16.5145 14.4276C16.3312 15.3439 16.2396 15.8021 16.0004 16.1448C15.7894 16.447 15.499 16.685 15.1613 16.8326C14.7783 17 14.3111 17 13.3766 17H6.62337C5.6889 17 5.22166 17 4.83868 16.8326C4.50097 16.685 4.2106 16.447 3.99964 16.1448C3.76041 15.8021 3.66878 15.3439 3.48551 14.4276L2 7M18 7H16M18 7H19M2 7H1M2 7H4M4 7H16M4 7L7 1M16 7L13 1M7 10V13M10 10V13M13 10V13" stroke="#E04F16" stroke-width="1.11429" stroke-linecap="round" stroke-linejoin="round"/>
</svg>
