<svg width="16" height="16" viewBox="0 0 16 16" fill="none" xmlns="http://www.w3.org/2000/svg">
<path d="M7.56795 1.1703C7.76081 0.839163 8.23919 0.839162 8.43206 1.1703L10.2557 4.30129C10.4676 4.66519 10.8228 4.92323 11.2344 5.01236L14.7757 5.77921C15.1502 5.86032 15.298 6.31528 15.0427 6.60103L12.6285 9.30295C12.3479 9.61698 12.2122 10.0345 12.2547 10.4535L12.6197 14.0584C12.6583 14.4397 12.2712 14.7209 11.9206 14.5663L8.60487 13.1052C8.2195 12.9354 7.7805 12.9354 7.39513 13.1052L4.07942 14.5663C3.72875 14.7209 3.34174 14.4397 3.38034 14.0584L3.74534 10.4535C3.78776 10.0345 3.6521 9.61698 3.3715 9.30295L0.957288 6.60103C0.701961 6.31528 0.849786 5.86032 1.22431 5.77921L4.7656 5.01236C5.17719 4.92323 5.53235 4.66519 5.74431 4.30129L7.56795 1.1703Z" stroke="#E04F16"/>
</svg>
