<svg width="16" height="16" viewBox="0 0 16 16" fill="none" xmlns="http://www.w3.org/2000/svg">
<path d="M7.13589 0.918646C7.52162 0.256378 8.47838 0.256379 8.86411 0.918647L10.6878 4.04964C10.8291 4.29224 11.0658 4.46427 11.3402 4.52369L14.8815 5.29054C15.6306 5.45275 15.9262 6.36267 15.4156 6.93418L13.0013 9.63609C12.8143 9.84545 12.7238 10.1238 12.7521 10.4031L13.1171 14.0081C13.1943 14.7706 12.4203 15.3329 11.719 15.0239L8.40325 13.5628C8.14634 13.4495 7.85366 13.4495 7.59675 13.5628L4.28104 15.0239C3.57971 15.3329 2.80568 14.7706 2.88288 14.0081L3.24788 10.4031C3.27616 10.1238 3.18572 9.84545 2.99866 9.63609L0.584442 6.93418C0.0737871 6.36267 0.369441 5.45274 1.11849 5.29054L4.65978 4.52369C4.93417 4.46427 5.17095 4.29224 5.31225 4.04964L7.13589 0.918646Z" fill="#E04F16"/>
</svg>
