<svg width="64" height="75" viewBox="0 0 64 75" fill="none" xmlns="http://www.w3.org/2000/svg">
<path d="M2.952 44V35.456H0.312V32.336H2.952V27.512H6.624V32.336H9.264V35.456H6.624V44H2.952ZM10.8819 44V32.336H14.5539V33.224C15.2979 32.48 16.2819 32.096 17.5539 32.096C18.6579 32.096 19.5219 32.432 20.1459 33.128L17.9619 35.888C17.6259 35.552 17.1699 35.336 16.5459 35.336C15.3219 35.336 14.5539 36.08 14.5539 37.592V44H10.8819ZM25.668 44.24C22.452 44.24 20.076 41.648 20.076 38.168C20.076 34.688 22.452 32.096 25.668 32.096C26.964 32.096 28.092 32.552 28.884 33.296V32.336H32.484V44H28.884V43.04C28.092 43.784 26.964 44.24 25.668 44.24ZM26.412 40.928C27.972 40.928 29.028 39.8 29.028 38.168C29.028 36.536 27.972 35.408 26.436 35.408C24.9 35.408 23.796 36.56 23.796 38.168C23.796 39.776 24.9 40.928 26.412 40.928ZM44.2478 44.24C41.1038 44.24 38.9438 41.576 38.9438 38.168C38.9438 34.76 41.1278 32.096 44.2478 32.096C45.7118 32.096 46.8158 32.6 47.5598 33.464V26.576H51.1838V44H47.5598V42.896C46.8158 43.736 45.7358 44.24 44.2478 44.24ZM45.1838 40.832C46.7438 40.832 47.7278 39.704 47.7278 38.072C47.7278 36.44 46.7438 35.288 45.1838 35.288C43.6958 35.288 42.6638 36.44 42.6638 38.072C42.6638 39.704 43.6718 40.832 45.1838 40.832ZM53.7726 44V32.336H57.4446V33.224C58.1886 32.48 59.1726 32.096 60.4446 32.096C61.5486 32.096 62.4126 32.432 63.0366 33.128L60.8526 35.888C60.5166 35.552 60.0606 35.336 59.4366 35.336C58.2126 35.336 57.4446 36.08 57.4446 37.592V44H53.7726Z" fill="#E04F16"/>
<circle cx="33" cy="29" r="2" fill="#E04F16"/>
<circle cx="39" cy="29" r="2" fill="#E04F16"/>
<rect x="34" y="32" width="4" height="12" fill="#E04F16"/>
</svg>
